<svg id="Слой_1" data-name="Слой 1" xmlns="http://www.w3.org/2000/svg" viewBox="0 0 750 1336"><defs><style>.cls-1,.cls-21{fill:#f2f2f2;}.cls-2,.cls-24,.cls-4{fill:#fff;}.cls-11,.cls-2,.cls-21{stroke:#007aff;}.cls-11,.cls-2,.cls-21,.cls-22{stroke-miterlimit:10;}.cls-22,.cls-3,.cls-34,.cls-35{fill:#007aff;}.cls-5{fill:#c7e6f1;}.cls-6{fill:#e6f5fa;}.cls-7{fill:#7bb8d2;}.cls-8{fill:#22363f;}.cls-25,.cls-9{fill:#396174;}.cls-10{fill:#57879c;}.cls-11{fill:#d1d2d3;}.cls-12{fill:#599ec4;}.cls-13{fill:#67b6e3;}.cls-14{fill:#bbbbbc;}.cls-15{fill:#3d4181;}.cls-16{fill:#8e70f4;}.cls-17{fill:#f8f8fa;}.cls-18{fill:#7ba7b7;}.cls-19{fill:#5a9eda;}.cls-20{fill:#c1d2f5;}.cls-22{stroke:#fff;stroke-width:4px;opacity:0.58;}.cls-23{fill:#ececee;}.cls-24{opacity:0.25;}.cls-25{font-size:32px;font-family:MyriadPro-Regular, Myriad Pro;}.cls-26{letter-spacing:-0.02em;}.cls-27{letter-spacing:0em;}.cls-28{letter-spacing:-0.01em;}.cls-29{letter-spacing:0em;}.cls-30,.cls-35{letter-spacing:-0.01em;}.cls-31{letter-spacing:-0.01em;}.cls-32{letter-spacing:0em;}.cls-33{letter-spacing:0.01em;}.cls-34{letter-spacing:-0.04em;}</style></defs><title>ФИНАЛЬНЫЙ_онбординг</title><rect class="cls-1" width="750" height="1336"/><ellipse class="cls-2" cx="230.5" cy="390.77" rx="117.95" ry="118"/><ellipse class="cls-2" cx="519.5" cy="390.77" rx="117.95" ry="118"/><circle class="cls-3" cx="230.47" cy="390.64" r="111.63"/><path class="cls-4" d="M247.81,396.36a11.23,11.23,0,0,0,5.39,4.76,11.37,11.37,0,0,0,3,.8,11.15,11.15,0,0,0,12.37-12.24,11.15,11.15,0,0,0-1.39-4.35,11,11,0,0,0-2.07-2.64l-.32-.26-1.41-1.06a11,11,0,0,0-3.66-1.44,10.09,10.09,0,0,0-1.1-.18,11.11,11.11,0,0,0-11.26,6.4,11.28,11.28,0,0,0-1,6,10.44,10.44,0,0,0,.45,2.05A11,11,0,0,0,247.81,396.36Zm.16-5.52a9.55,9.55,0,0,1,17.92-4.58,9.45,9.45,0,0,1,1.17,4.58,5.3,5.3,0,0,1,0,.57,9.54,9.54,0,0,1-19.06-.57Z" transform="translate(-0.02 1)"/><path class="cls-4" d="M286.15,431.32a16.24,16.24,0,0,0-10.49-9.72l-33-7.86-14.21,2-14.21-2-33,7.86a16.2,16.2,0,0,0-10.49,9.72l-7.29,18.95h129.9Z" transform="translate(-0.02 1)"/><path class="cls-5" d="M228.49,411.78a37.47,37.47,0,0,1-20.3-15.36V424a27.53,27.53,0,0,0,2,10.22l6.15,15.38h24.36l6.15-15.38a27.52,27.52,0,0,0,2-10.22V396.42A37.45,37.45,0,0,1,228.49,411.78Z" transform="translate(-0.02 1)"/><path class="cls-6" d="M208.19,396.42V424a27.53,27.53,0,0,0,2,10.22l6.15,15.38h12.18V411.78A37.47,37.47,0,0,1,208.19,396.42Z" transform="translate(-0.02 1)"/><path class="cls-4" d="M228.44,441.47a61.18,61.18,0,0,1-16.28-2.15l4.1,10.27h24.36l4.11-10.27A61.32,61.32,0,0,1,228.44,441.47Z" transform="translate(-0.02 1)"/><path class="cls-6" d="M258.93,363.07h-2V363c0-18.28-2.08-34.46-28.41-34.46S200.11,344.74,200.07,363v.05h-2c-2,0-4.06,2.25-4.06,4.51,0,6.27,1.76,14.47,8.48,15.63,5,18.47,16.68,25.45,26,28.57,9.34-3.12,21.07-10.1,26-28.57,6.73-1.16,8.48-9.36,8.48-15.63C263,365.32,261,363.07,258.93,363.07Z" transform="translate(-0.02 1)"/><path class="cls-4" d="M200.07,363s.05.24.05.25c-.75,0-1.51-.2-2.08-.2-2,0-4.06,2.25-4.06,4.51,0,6.27,1.76,14.47,8.48,15.63,5,18.47,16.68,25.45,26,28.57V328.56C202.15,328.56,200.11,344.74,200.07,363Z" transform="translate(-0.02 1)"/><path class="cls-7" d="M218.34,389.45h20.3s0,6.09-10.15,6.09S218.34,389.45,218.34,389.45Z" transform="translate(-0.02 1)"/><path class="cls-8" d="M222.39,368.4a4.06,4.06,0,0,0-4.06-4.06h0a.69.69,0,0,1,0,.13,4.06,4.06,0,0,1-4.05,4.06,4.06,4.06,0,0,0,8.11-.13Z" transform="translate(-0.02 1)"/><path class="cls-4" d="M189.81,396.36a11.23,11.23,0,0,0,5.39,4.76,11.37,11.37,0,0,0,3,.8,11.15,11.15,0,0,0,12.37-12.24,11.15,11.15,0,0,0-1.39-4.35,11,11,0,0,0-2.07-2.64l-.32-.26-1.41-1.06a11,11,0,0,0-3.66-1.44,10.09,10.09,0,0,0-1.1-.18,11.11,11.11,0,0,0-11.26,6.4,11.28,11.28,0,0,0-1,6,10.44,10.44,0,0,0,.45,2.05A11,11,0,0,0,189.81,396.36Zm.16-5.52a9.55,9.55,0,0,1,17.92-4.58,9.45,9.45,0,0,1,1.17,4.58,5.3,5.3,0,0,1,0,.57,9.54,9.54,0,0,1-19.06-.57Z" transform="translate(-0.02 1)"/><path class="cls-9" d="M265.12,345.51c-2.26-4-7.43-13.09-17.08-18.12-10.92-5.69-25.88-4.28-31.92-2.84-12,2.86-22.77,11.16-28.81,27.55a33.24,33.24,0,0,0,.94,25.34,21.46,21.46,0,0,0,2.75,3.8l1.16-2.87s-.57,3.49,4.06,7.25c6.9,5.61,16.9,4.66,16.9,4.66s-7-3.81-11.4-21.75c-.78-3.17-.88-10.91-.82-11.6,7.22-.17,34.49-2.11,44.1-21.68l.06.15c.84,2.22,4.76,6.68,8.06,17.73.8,2.69,1.27,10.21,1,14.29-1,15.24-10.2,21.86-11.06,22.78l-.18.2s9.71-.82,14.15-4.78,4.05-7.25,4.05-7.25l1.16,3.82s3.61-2.24,6.08-8.77C272.28,363,267.64,350,265.12,345.51Zm-20.33-10.7h.05v0Z" transform="translate(-0.02 1)"/><path class="cls-8" d="M242.67,368.4a4.06,4.06,0,0,0-4.06-4.06h0c0,.05,0,.09,0,.13a4.06,4.06,0,0,1-4.05,4.06,4.06,4.06,0,0,0,8.11-.13Z" transform="translate(-0.02 1)"/><path class="cls-8" d="M248,327.39c-6.13-3.2-13.54-4.15-19.92-4.12V351c6.81-3.22,13.17-8.14,16.88-15.7l.06.15c.84,2.22,4.76,6.68,8.06,17.73.8,2.69,1.27,10.21,1,14.29-1,15.24-10.2,21.86-11.06,22.78l-.18.2s9.71-.82,14.15-4.78,4.05-7.25,4.05-7.25l1.16,3.82s3.61-2.24,6.08-8.77c4-10.46-.68-23.4-3.2-27.91C262.86,341.47,257.69,332.42,248,327.39Zm-3.25,7.42h.05v0Z" transform="translate(-0.02 1)"/><path class="cls-4" d="M249.12,415.27s-3,12.35-20.63,12.35-20.3-12.43-20.3-12.43l-19.4,35.08H263L274.12,428Z" transform="translate(-0.02 1)"/><path class="cls-4" d="M236,439.23a.17.17,0,0,0,.14-.16v0a.15.15,0,0,0-.14-.15q-6.55-1-7.54-7.56a.17.17,0,0,0-.16-.13h0a.17.17,0,0,0-.16.13q-1,6.57-7.55,7.56a.15.15,0,0,0-.13.15v0a.17.17,0,0,0,.13.16q6.57,1,7.55,7.55a.17.17,0,0,0,.16.13h.06a.14.14,0,0,0,.13-.12C229.08,442.41,231.6,439.88,236,439.23Z" transform="translate(-0.02 1)"/><circle class="cls-3" cx="519.73" cy="390.64" r="111.63"/><path class="cls-6" d="M554.3,373.88c0-2.26-2-4.51-4-4.51s-2,2.25-2,2.25v-2.25c0-18.27-2.08-30.45-28.42-30.45s-28.38,12.18-28.42,30.45v16.16l8.12,20.3,10.37,8.11a6.08,6.08,0,0,0,4.54,2h10.78a6.08,6.08,0,0,0,4.54-2l10.37-8.11,6.48-16.2C552.35,389.24,554.3,380.49,554.3,373.88Z" transform="translate(-0.02 1)"/><path class="cls-4" d="M491.38,369.29v2.26s0-2.26-2-2.26-4.06,2.26-4.06,4.51c0,6.62,1.95,15.36,7.72,15.75l6.48,16.2,10.37,8.11a6.05,6.05,0,0,0,4.54,2h5.39v-77C493.46,338.85,491.42,351,491.38,369.29Z" transform="translate(-0.02 1)"/><path class="cls-9" d="M493.41,351v2l.49-.07A5.62,5.62,0,0,1,493.41,351Z" transform="translate(-0.02 1)"/><path class="cls-8" d="M576.63,432.21a12.19,12.19,0,0,0-6.18-6L540.1,418V405.83l-10.37,8.11c-1.15,1.29-2.8,1-4.54,1l-5.39,1-5.39-1c-1.74,0-3.39.26-4.54-1l-10.37-8.11V418l-30.36,8.16a12.21,12.21,0,0,0-6.17,6l-8.12,22.33h129.9Z" transform="translate(-0.02 1)"/><path class="cls-9" d="M557.12,351.27c-.6-3.6-4-5.4-6-6l-.48-.15a6.72,6.72,0,0,0,3.23-2.38,3.06,3.06,0,0,0,.33-.68c.68-2-.7-4.15-2.55-5.12l-.08,0a11.27,11.27,0,0,0-5.13-.89h-1.08a1.2,1.2,0,0,0,.26-.24c1.08-1.17.6-3.19-.44-4.57-.12-.15-.24-.3-.37-.44a9.28,9.28,0,0,0-8.15-2.59,8.54,8.54,0,0,0-3.54,1.41,4,4,0,0,0-1.74-2.69,7.62,7.62,0,0,0-3-1.25,12.42,12.42,0,0,0-9.74,2.31,6.88,6.88,0,0,0-3.4-2.73,8.54,8.54,0,0,0-5.6-.25,12.34,12.34,0,0,0-7.18,6.83c-1.86-2.63-6-2.87-8.6-.9s-3.74,5.36-.74,8.36c-1.27-1.35-5.55-.66-8.5,1.27-1.51,1-6.17,4.36-4.5,12.73,1,4.92,4.88,7.9,8.67,9.34l4.07,24.56s-4.74,8.1,2.26,13.1c0,0-2.67,6.5,2,10a7.94,7.94,0,0,0,8,1s.64,5.24,8.32,5.62c0,0,12.64,0,13.06-.06,7-.6,7.62-5.56,7.62-5.56a7.94,7.94,0,0,0,8-1c4.66-3.5,2-10,2-10,6.08-4.35,3.3-11,2.46-12.71L550.37,360C555.34,359.18,558,356.27,557.12,351.27Zm-14.91,38-.09,0-2.82,6.1L536,401.9h-2l-2.67-8a6.1,6.1,0,0,0-5.78-4.17H514a6.1,6.1,0,0,0-5.78,4.17l-2.67,8h-2l-6.09-12.18v-.06l-4.06-20.29v-7.69a14.27,14.27,0,0,0,5.52-4.58,6.42,6.42,0,0,0,1.19-3.83s1.92,6,8,6,5.55-4.9,5.55-4.9a13.34,13.34,0,0,0,11.45,5.9,12.12,12.12,0,0,0,9.94-5l.22,0c1.79,2.36,5,4.71,10.91,4.94v9.12Z" transform="translate(-0.02 1)"/><path class="cls-8" d="M513.67,373.4a4.05,4.05,0,0,0-4-4.06h0c0,.05,0,.09,0,.13a4.07,4.07,0,0,1-4.05,4.06,4.05,4.05,0,0,0,8.1-.13Z" transform="translate(-0.02 1)"/><path class="cls-10" d="M520.12,389.72H514a6.1,6.1,0,0,0-5.78,4.17l-2.67,8h-2l-6.09-12.18v-.06l-4.06-20.29v-7.69a14.27,14.27,0,0,0,5.52-4.58,6.42,6.42,0,0,0,1.19-3.83s1.92,6,8,6,5.55-4.9,5.55-4.9a12.93,12.93,0,0,0,6.45,5V327a11.31,11.31,0,0,0-1.48.95,6.88,6.88,0,0,0-3.4-2.73,8.54,8.54,0,0,0-5.6-.25,12.34,12.34,0,0,0-7.18,6.83c-1.86-2.63-6-2.87-8.6-.9s-3.74,5.36-.74,8.36c-1.27-1.35-5.55-.66-8.5,1.27-1.51,1-6.17,4.36-4.5,12.73,1,4.92,4.88,7.9,8.67,9.34l4.07,24.56s-4.74,8.1,2.26,13.1c0,0-2.67,6.5,2,10a7.94,7.94,0,0,0,8,1s.64,5.24,8.32,5.62h6.68Z" transform="translate(-0.02 1)"/><path class="cls-8" d="M534,373.4a4.06,4.06,0,0,0-4.06-4.06h0c0,.05,0,.09,0,.13a4.06,4.06,0,0,1-4,4.06,4.06,4.06,0,0,0,8.11-.13Z" transform="translate(-0.02 1)"/><path class="cls-6" d="M511.68,395.68h16.24s0,6.09-8.12,6.09S511.68,395.68,511.68,395.68Z" transform="translate(-0.02 1)"/><path class="cls-8" d="M540.71,381.58a9.54,9.54,0,0,1-16.27-6.17c0-.19,0-.37,0-.57a9.45,9.45,0,0,1,1.18-4.58,9.54,9.54,0,1,1,15.12,11.32Zm4.17-9a11.34,11.34,0,0,0-.63-2,11.13,11.13,0,0,0-16.77-4.77c-.3.21-.59.45-.87.69a11.32,11.32,0,0,0-2.47,3.07h-8.21a10.15,10.15,0,0,1,.7,1.62h6.81c-.05.12-.1.25-.14.38a11,11,0,0,0-.51,3.31,11.14,11.14,0,0,0,17.75,9,11.44,11.44,0,0,0,2.25-2.2,11.13,11.13,0,0,0,2.33-6.8A11.57,11.57,0,0,0,544.88,372.54Z" transform="translate(-0.02 1)"/><path class="cls-8" d="M494.35,374.84a11.3,11.3,0,0,0,2.33,6.8,11.72,11.72,0,0,0,2.25,2.2,11.09,11.09,0,0,0,12.71.33,11.32,11.32,0,0,0,4.1-4.85,11.1,11.1,0,0,0,.72-2.29,11.22,11.22,0,0,0,.22-2.19,11.33,11.33,0,0,0-.5-3.31c0-.13-.1-.26-.14-.38h6.8a11.19,11.19,0,0,1,.71-1.62h-8.22a11.1,11.1,0,0,0-2.46-3.07c-.28-.24-.58-.48-.88-.69a11.08,11.08,0,0,0-12.95,0,11.25,11.25,0,0,0-3.82,4.77,10.54,10.54,0,0,0-.62,2A10.88,10.88,0,0,0,494.35,374.84Zm1.62,0a9.55,9.55,0,0,1,17.92-4.58,9.45,9.45,0,0,1,1.17,4.58,5.3,5.3,0,0,1,0,.57,9.54,9.54,0,0,1-19.06-.57Z" transform="translate(-0.02 1)"/><rect class="cls-11" x="119.1" y="583.27" width="512" height="286" rx="51" ry="51"/><path class="cls-8" d="M345.45,579.43l-39,39a12.44,12.44,0,0,1-17.59-17.59L328,561.75A52.38,52.38,0,0,0,345.45,579.43Z" transform="translate(-0.02 1)"/><path class="cls-9" d="M335.51,571.49,288.7,618.3a12.44,12.44,0,0,1,.11-17.44L328,561.73A53.08,53.08,0,0,0,335.51,571.49Z" transform="translate(-0.02 1)"/><circle class="cls-4" cx="373.1" cy="535.53" r="52.4"/><path class="cls-7" d="M373.49,481.73A52.45,52.45,0,1,1,321,534.17a52.46,52.46,0,0,1,52.45-52.44m0-7.19a59.64,59.64,0,1,0,59.63,59.63,59.7,59.7,0,0,0-59.63-59.63Z" transform="translate(-0.02 1)"/><path class="cls-12" d="M414.9,534.53a41.78,41.78,0,1,0-41.77,41.78A41.77,41.77,0,0,0,414.9,534.53Z" transform="translate(-0.02 1)"/><path class="cls-13" d="M373.13,492.76a41.76,41.76,0,0,0-29.77,71.06l59.06-59.05A41.65,41.65,0,0,0,373.13,492.76Z" transform="translate(-0.02 1)"/><path class="cls-14" d="M415.24,755.68c2.06,4.38-9.16,14-25.07,21.49s-30.47,10-32.53,5.63,9.16-14,25.06-21.49S413.18,751.3,415.24,755.68Z" transform="translate(-0.02 1)"/><path class="cls-8" d="M359.23,779.48l-.68,4a4.4,4.4,0,0,0,1.07,3.69l6,4.53a4.19,4.19,0,0,0,3.19.8h0a2.44,2.44,0,0,0,2-3l-2.63-10Z" transform="translate(-0.02 1)"/><path class="cls-8" d="M388.71,777.91l-.41,3.16a3.55,3.55,0,0,0,3.18,4l3.57.36a12.57,12.57,0,0,1,3.57.9l.95.4a27.81,27.81,0,0,0,10.79,2.18h1.2a2.09,2.09,0,0,0,2.08-2.09h0a2.1,2.1,0,0,0-1-1.81l-14.13-8.15Z" transform="translate(-0.02 1)"/><path class="cls-15" d="M395,694.9l-28,1.46L362.55,716l-5.76,64.85c.88,2.56,13.95,3.29,13.61,0l12.73-57.31,4.35,55.28c.88,3.13,13,3.14,13-.7l-1.34-63.82S402.42,699.61,395,694.9Z" transform="translate(-0.02 1)"/><path class="cls-8" d="M377.84,646l-3.85.69v2.8L367,653v44.06s20.81,8.84,30.7-.69L396,667.88a9.22,9.22,0,0,0-1.15-3.93l-7-12.47L386.44,649Z" transform="translate(-0.02 1)"/><path class="cls-16" d="M384.58,652.42l-2.21,4a4,4,0,0,0,2.21,2.55l-.58,4.42.58,39.88,6.86,3.48,3.6-5.92-1.81-26.71a15.75,15.75,0,0,0-1.09-4.78l-4.31-10.72s1-.34.88-3Z" transform="translate(-0.02 1)"/><path class="cls-15" d="M374,649.51l1.64,1.27,4.07,20.35-16.28,47.2c-5.67.16-10.38-1.37-13.72-5.35l5.12-10.93-3-6.89a26.14,26.14,0,0,1-.59-19.23l3.15-8.71a4.87,4.87,0,0,0,.29-1.77l-.12-4.36a5,5,0,0,1,3.09-4.77Z" transform="translate(-0.02 1)"/><path class="cls-15" d="M386.44,649,396.1,654a5.9,5.9,0,0,1,3.22,5.09l1.19,44.63-7-5.11V665.78Z" transform="translate(-0.02 1)"/><path class="cls-17" d="M372,640.55a3,3,0,0,0,.76,1,2,2,0,0,0,1.28.34v4.83l10.59,5.71,1.86-1.87V649a2.63,2.63,0,0,1,.84-1.94l.53-.5a4.38,4.38,0,0,0,1.42-3.24V632.83a2.68,2.68,0,0,0,0-.4,8.82,8.82,0,0,0-8.83-8.44h-.05a8.85,8.85,0,0,0-8.86,8.84v3.11a4.37,4.37,0,0,0-.09.49A6.86,6.86,0,0,0,372,640.55Z" transform="translate(-0.02 1)"/><path class="cls-8" d="M373.44,637.13a14.4,14.4,0,0,1,0-4.77c.32-1.37,1.09-2.54,1.48-3.83a1.11,1.11,0,0,1,1.34-.76,14.89,14.89,0,0,0,8.1-.4,1.1,1.1,0,0,1,1.41.64,9.24,9.24,0,0,0,3.4,4.42,8.82,8.82,0,0,0-8.83-8.44h-.05a8.85,8.85,0,0,0-8.86,8.84v3.11a2.8,2.8,0,0,0-.06.28A3.19,3.19,0,0,1,373.44,637.13Z" transform="translate(-0.02 1)"/><path class="cls-14" d="M514.31,766c2.06,4.38-9.16,14-25.07,21.5s-30.47,10-32.53,5.63,9.16-14,25.06-21.49S512.25,761.58,514.31,766Z" transform="translate(-0.02 1)"/><path class="cls-17" d="M464.76,791.74a2.45,2.45,0,0,0,2.45,2.45h2.72a3.78,3.78,0,0,0,3.78-3.78,2.2,2.2,0,0,1,1.62-2.12l.13,0v2.44h1.63v-4.13a2.61,2.61,0,0,1,.52-1.56,2.62,2.62,0,0,0,.51-1.56v-2.66a3.34,3.34,0,0,0-2-3.06.52.52,0,0,1-.3-.49v0l1.78-14.78a64.08,64.08,0,0,0,.49-8.08V741.77l-10,.69,2.11,36.85a10.82,10.82,0,0,1-2.06,7l-1.46,2-1.49,2A2.41,2.41,0,0,0,464.76,791.74Z" transform="translate(-0.02 1)"/><path class="cls-17" d="M492.54,786.62a2.45,2.45,0,0,1-2.45,2.46h-2.72a3.78,3.78,0,0,1-3.78-3.78,2.19,2.19,0,0,0-1.62-2.12l-.13,0v2.44h-1.63v-4.13a2.57,2.57,0,0,0-.52-1.56,2.68,2.68,0,0,1-.51-1.57v-2.66a3.34,3.34,0,0,1,2-3.06.5.5,0,0,0,.31-.48v-.06l-1.78-14.77a64.08,64.08,0,0,1-.49-8.08V736.65l10,.7-2.11,36.84a10.8,10.8,0,0,0,2.06,7l1.46,2,1.49,2A2.5,2.5,0,0,1,492.54,786.62Z" transform="translate(-0.02 1)"/><path class="cls-16" d="M487.89,691l-17.55-1-7,4.88L461.78,707a18.83,18.83,0,0,0,0,4.31l3,29.62a3.84,3.84,0,0,0,3.82,3.44h20.14a3.83,3.83,0,0,0,3.83-3.83v-42Z" transform="translate(-0.02 1)"/><path class="cls-18" d="M487.66,656h5.57a3.62,3.62,0,0,1,2.95,1.53l14.16,20.19a4.86,4.86,0,0,1,.3,5.11L501,700.51a1.74,1.74,0,0,1-2.81.35l-3.38-3.67a1.75,1.75,0,0,1-.18-2.13l7-10.76a3.32,3.32,0,0,0,0-3.56L494.4,669l-2.46,4.74a5.22,5.22,0,0,0-.59,2.28l-.55,20.18s-8,2-12-3.37c0,0-5.69,6.28-15.46,2l3.58-8.38a10.56,10.56,0,0,0,.84-4.11V677.5a9.06,9.06,0,0,0-1.84-5.47l-1.42-1.88L458,683.55a2.69,2.69,0,0,0-.18,1.87l2.81,10.41a3.72,3.72,0,0,1-.39,2.88l-1.12,1.87a2.37,2.37,0,0,1-4.15-.15,56.07,56.07,0,0,1-5.41-16.68,3.85,3.85,0,0,1,.44-2.3l12.08-22.59a4.27,4.27,0,0,1,3.66-2.26Z" transform="translate(-0.02 1)"/><path class="cls-8" d="M476.15,631.44c5.82.16,9.81,5.81,10.43,11.61.33,3.09-.35,6.33.7,9.26a15.67,15.67,0,0,0,2.92,4.57,19.94,19.94,0,0,1,3.08,4.46,6.16,6.16,0,0,1,.1,5.27,3.72,3.72,0,0,1-4.59,1.81c-1.83-.86-2.27-3.19-3-5.08a11.86,11.86,0,0,0-6.77-6.76c-2.58-1-5.61-1.19-7.89.36a8.84,8.84,0,0,0-3.78,7c0,1.64.41,3.29.18,4.91s-1.47,3.32-3.11,3.21-2.63-2-2.84-3.6a14.93,14.93,0,0,1,1.81-8.18c1.24-2.55,2.79-4.95,3.81-7.59s-.14-5.69-.24-8.56a17.22,17.22,0,0,1,1.42-8.41C469.68,633.17,472.07,631.32,476.15,631.44Z" transform="translate(-0.02 1)"/><path class="cls-17" d="M475.1,634.81h0a5.7,5.7,0,0,0-5.69,5.7v5.26a4.16,4.16,0,0,0,.42,1.83c.66,1.33,2,3.69,3.76,4.18v3.84l-1.33.7,5.29,14.76s4.53-10.93,5.34-15.46h-1.28v-6.39a12.17,12.17,0,0,0,.59-5.93c-.52-2.56-3.37-3.68-4-7a1.84,1.84,0,0,0-1.83-1.49Z" transform="translate(-0.02 1)"/><path class="cls-17" d="M495.27,696.19l-4.41-1.62a3.77,3.77,0,0,0-1.33-.24H487c-1,.22-1,1.44,0,1.49h2.35l1.46.37H487a1.49,1.49,0,0,0-1.49,1.49v.48a1.49,1.49,0,0,0,1.49,1.49h4.18v.61h-3.84c-.87,0-.87,1.83,0,1.83h7.89a3.26,3.26,0,0,0,2.31-1l1-1Z" transform="translate(-0.02 1)"/><path class="cls-17" d="M459.64,696.89h.85a3.43,3.43,0,0,0,2.79-1.44l.23-.34a1.82,1.82,0,0,1,1.5-.78h2.77a.65.65,0,0,1,0,1.28H465s-1,1.57-.81,1.57h4.18c.7.12.84,1.31,0,1.4H464v.58h3.78c.7.11.84,1.39,0,1.45H464v.81h1.86a.63.63,0,0,1,0,1.23h-7.23a1.72,1.72,0,0,1-1.72-1.72v-2.72Z" transform="translate(-0.02 1)"/><path class="cls-16" d="M464.76,791.74a2.45,2.45,0,0,0,2.45,2.45h2.72a3.78,3.78,0,0,0,3.78-3.78,2.2,2.2,0,0,1,1.62-2.12l.13,0v2.44h1.63v-4.13a2.61,2.61,0,0,1,.52-1.56,2.62,2.62,0,0,0,.51-1.56v-2.66a3.34,3.34,0,0,0-2-3.06.52.52,0,0,1-.3-.49v4.16a4.71,4.71,0,0,1-.66,2.4L473.91,786a4.7,4.7,0,0,1-4,2.3h-3.16l-1.49,2A2.41,2.41,0,0,0,464.76,791.74Z" transform="translate(-0.02 1)"/><path class="cls-16" d="M492.54,786.62a2.45,2.45,0,0,1-2.45,2.46h-2.72a3.78,3.78,0,0,1-3.78-3.78,2.19,2.19,0,0,0-1.62-2.12l-.13,0v2.44h-1.63v-4.13a2.57,2.57,0,0,0-.52-1.56,2.68,2.68,0,0,1-.51-1.57v-2.66a3.34,3.34,0,0,1,2-3.06.5.5,0,0,0,.31-.48v4.15a4.59,4.59,0,0,0,.66,2.4l1.28,2.17a4.7,4.7,0,0,0,4,2.3h3.16l1.49,2A2.5,2.5,0,0,1,492.54,786.62Z" transform="translate(-0.02 1)"/><path class="cls-14" d="M279.83,757.51c2.07,4.38-9.16,14-25.07,21.5s-30.47,10-32.53,5.63,9.16-14,25.07-21.5S277.77,753.13,279.83,757.51Z" transform="translate(-0.02 1)"/><path class="cls-17" d="M273,704.64l1.62,4.12a3.78,3.78,0,0,1-.18,3.17l-.32.59a4,4,0,0,1-3.51,2.09H266a.84.84,0,0,1-.84-.91l.5-6.69Z" transform="translate(-0.02 1)"/><path class="cls-17" d="M226.55,703.18v10.23h.1a1.57,1.57,0,0,1,1.57,1.57h0a1.57,1.57,0,0,1-1.57,1.57h0a4,4,0,0,1-3.3-1.7l-2.25-3.16a4.1,4.1,0,0,1-.46-3.89l1.26-3.16Z" transform="translate(-0.02 1)"/><path class="cls-8" d="M240.56,771.08v8.31a1.28,1.28,0,0,1-1.28,1.28h0a3.76,3.76,0,0,0-2,.6l-1.51,1a3.17,3.17,0,0,0-1.14,1.32h0a3.29,3.29,0,0,1-2.21,1.82l-2.69.66a4,4,0,0,1-2.82-.36l-.83-.46a3.32,3.32,0,0,1-1-5.09l7.06-8.26Z" transform="translate(-0.02 1)"/><path class="cls-8" d="M249.73,771.08v8.31a1.29,1.29,0,0,0,1.28,1.28h0a3.74,3.74,0,0,1,2,.6l1.52,1a3.14,3.14,0,0,1,1.13,1.32h0a3.3,3.3,0,0,0,2.22,1.82l2.68.66a4,4,0,0,0,2.82-.36l.84-.46a3.34,3.34,0,0,0,.95-5.09l-7.06-8.26Z" transform="translate(-0.02 1)"/><path class="cls-19" d="M234.81,685.45h27.9l-2.44,87.72c-.18,3.31-10.81,3.49-11.63,0l.11-51.15a8.42,8.42,0,0,0-.51-2.94l-1.69-4.68a.57.57,0,0,0-1.09.11l-3.67,24.68a31.55,31.55,0,0,0-.34,4.85l.16,29.13c-.87,3.49-11.86,3.49-12.73,0V707.08Z" transform="translate(-0.02 1)"/><polygon class="cls-20" points="246.53 644.43 252.57 640.83 254.2 642.63 248.85 671.63 247.51 688.72 237.34 688.72 237.34 660.35 241.65 643.27 246.53 644.43"/><path class="cls-8" d="M265.61,707l-2.09-36,1.52,43.6c-5.65,2.44-14.89-.88-15.36-5.57l-2.15-21.29-.31-16.92,5.37-25.28v-5.69l16,6.6a4.52,4.52,0,0,1,2.78,3.86l3.87,57.77Z" transform="translate(-0.02 1)"/><path class="cls-8" d="M244.5,641.64l-7.14,46.08L234.08,709c-.67,4.35-4,5.89-6.49,5.58l.7-9.07-8.48.35,6.53-55.65a4.49,4.49,0,0,1,3-3.74l12.32-4.2,2.82-.63Z" transform="translate(-0.02 1)"/><path class="cls-17" d="M254.69,625.93V632a2.09,2.09,0,0,1-2.1,2.09v5.71l-6.73,6.5-4.19-4.06V639c-1.52-.34-2.22-4.53-2.22-4.53a2.08,2.08,0,0,1-2.09-2.09v-6.45a8.67,8.67,0,0,1,17.33,0Z" transform="translate(-0.02 1)"/><path class="cls-19" d="M254.69,625.93V629a3.14,3.14,0,0,1-2.33-3v-.68a3.33,3.33,0,0,0-4.79-3,16.44,16.44,0,0,1-7.42,1.88v2.44a2.5,2.5,0,0,1-2.5,2.5h-.29v-3.2a8.67,8.67,0,0,1,17.33,0Z" transform="translate(-0.02 1)"/><polygon class="cls-15" points="245.83 647.33 248.62 649.77 246 690.46 242.69 693.6 238.16 690.23 243.39 649.77 245.83 647.33"/><path class="cls-8" d="M257.13,719.57a2.72,2.72,0,0,1,1.73-2.53l18.4-7.18a2.67,2.67,0,0,1,.92-.17h0a2.51,2.51,0,0,1,2.49,2.18l2.95,21.9a3.58,3.58,0,0,1-2.08,3.76l-17,7.64a4,4,0,0,1-2.58.24l-3.11-.77a2.26,2.26,0,0,1-1.72-2.19Z" transform="translate(-0.02 1)"/><path class="cls-14" d="M453.21,821.13c2.06,4.38-9.16,14-25.07,21.49s-30.47,10-32.54,5.63,9.17-14,25.07-21.49S451.15,816.75,453.21,821.13Z" transform="translate(-0.02 1)"/><path class="cls-17" d="M426.52,802l1.56,26.63v11.79a6.91,6.91,0,0,0,1,3.43,16.45,16.45,0,0,0,1.37,1.85,2.09,2.09,0,0,0,3.13.05c.23-.25.44-.49.62-.72a6.67,6.67,0,0,0,1.3-5.18c0-.08,0-.17,0-.25l-2.65-13.94c2.79-15,1.92-24.93,1.92-24.93Z" transform="translate(-0.02 1)"/><path class="cls-17" d="M396.36,847.4a2.9,2.9,0,0,0,2.89,2.9,2.74,2.74,0,0,0,.93-.15l1.75-.59a8,8,0,0,0,5.17-5.43l1.1-3.89v4.58h1.58v-7.16l.53-.67a3.81,3.81,0,0,0,.07-4.64l-1.19-1.58a3.4,3.4,0,0,1-.58-2.86c1.07-4.23,3.88-16.22,3.53-25.12l-9.17-2.1-.92,34.45a12.76,12.76,0,0,1-2.78,7.59l-1.66,2.09-.62.78A2.82,2.82,0,0,0,396.36,847.4Z" transform="translate(-0.02 1)"/><path class="cls-19" d="M431.55,750.12s5.26,12.38,4.3,25.11c-.44,11.16,1.66,27.2,1.66,27.2a44.48,44.48,0,0,1-37.67,0l2.79-40.8s.35-8.43,3.49-10Z" transform="translate(-0.02 1)"/><path class="cls-15" d="M419.88,706.53l15.39,3.55a4.14,4.14,0,0,1,3.17,3.43L441,731.14a8.14,8.14,0,0,1-7.23,9.26l-.74.07,2.67,12.79-33,.58,2.56-9.65-.93-.15a7.54,7.54,0,0,1-6.27-7.92A161.85,161.85,0,0,1,400.58,715a5.86,5.86,0,0,1,4.21-4.43Z" transform="translate(-0.02 1)"/><path class="cls-17" d="M412.13,730.59l-.7,4.36h-5.74a.91.91,0,0,1-.8-1.33l.89-1.71a2.45,2.45,0,0,1,2.18-1.32Z" transform="translate(-0.02 1)"/><path class="cls-17" d="M433.41,731.11h-5.32l4.82-5.92a1.67,1.67,0,0,1,1.29-.62h0a1.66,1.66,0,0,1,1.65,1.66v1.19a2.42,2.42,0,0,1-.59,1.58Z" transform="translate(-0.02 1)"/><path class="cls-8" d="M428.08,840.38a6.91,6.91,0,0,0,1,3.43,16.45,16.45,0,0,0,1.37,1.85,2.09,2.09,0,0,0,3.13.05c.23-.25.44-.49.62-.72a6.67,6.67,0,0,0,1.3-5.18A12.84,12.84,0,0,1,428.08,840.38Z" transform="translate(-0.02 1)"/><path class="cls-8" d="M396.36,847.4a2.9,2.9,0,0,0,2.89,2.9,2.74,2.74,0,0,0,.93-.15l1.75-.59a8,8,0,0,0,5.17-5.43l1.1-3.89v4.58h1.58v-7.16l.54-.68a3.78,3.78,0,0,0,.06-4.63l-1.19-1.58v3.32a5.25,5.25,0,0,1-.6,2.45l-3.18,6.08a4.11,4.11,0,0,1-3.64,2.2h-4.16l-.62.78A2.82,2.82,0,0,0,396.36,847.4Z" transform="translate(-0.02 1)"/><path class="cls-19" d="M417.28,682.29c9.6,0,11.11,11.14,11,14.46V707.2a16.44,16.44,0,0,0,2.1,8l.73,1.32a3.66,3.66,0,0,1-.81,4.55h0A3.66,3.66,0,0,1,424.6,720l-4-8.15h-5.75V720a3.32,3.32,0,0,1-3.32,3.32h0a3.32,3.32,0,0,1-3.31-3.4l.54-21.35a32.71,32.71,0,0,0-.19-4.54C408.13,690.47,408.11,682.29,417.28,682.29Z" transform="translate(-0.02 1)"/><path class="cls-17" d="M414.78,686.5a12,12,0,0,0,7.11,2.29,1.63,1.63,0,0,1,1.57,1.18,28.11,28.11,0,0,1,.79,10.39,3.15,3.15,0,0,1-1.22,1.81v7.06l-4.44,4.71-.7,5.23-3.05-7.24.08-8.46a7.73,7.73,0,0,1-3.48-6.62c.08-4.54,0-6.8,0-6.8a5.78,5.78,0,0,1,1.6-3.44A1.37,1.37,0,0,1,414.78,686.5Z" transform="translate(-0.02 1)"/><path class="cls-14" d="M350.93,800.51c2.07,4.38-9.16,14-25.06,21.49s-30.48,10-32.54,5.63,9.16-14,25.07-21.49S348.87,796.13,350.93,800.51Z" transform="translate(-0.02 1)"/><path class="cls-17" d="M331.51,798.52a29.4,29.4,0,0,0-1.42,8.92v.5a41.48,41.48,0,0,1-.72,7.7l0,.13-.17.93v8h-1.52v-2.2l-.5.89a5.93,5.93,0,0,1-5.21,3.06h-6.33a1.33,1.33,0,0,1-1.33-1.33,1.35,1.35,0,0,1,.52-1l1.37-1.07a10.2,10.2,0,0,0,1.55-1.53,10.08,10.08,0,0,0,1.77-3.31l3-9.81a39.9,39.9,0,0,0,1.77-11.73v-24.8l7.08-.94,2.68,3.25A60.7,60.7,0,0,1,331.51,798.52Z" transform="translate(-0.02 1)"/><path class="cls-17" d="M316.49,812.93a3.34,3.34,0,0,1-1.05,2.43l-2.55,2.39v6.16h-1.74V818l-5.85,5.21a3.8,3.8,0,0,1-2.76,1.18h-6.35a1.89,1.89,0,0,1-.61-3.69l1.71-.58a7,7,0,0,0,4.1-3.62l2-4.09a6.9,6.9,0,0,0,.68-3.4l-2.23-38.09,10.24,1.51c3.63,6.71,1.83,15.29,1.09,18.12a7.86,7.86,0,0,0-.28,2.05v11.19a7.6,7.6,0,0,0,1,3.75l1.66,2.87.51.9A3.37,3.37,0,0,1,316.49,812.93Z" transform="translate(-0.02 1)"/><path class="cls-9" d="M308.18,716.73h22.5l3.25,4.65a189.79,189.79,0,0,1,1.16,28.48c-.69,17-1,24.3-1,24.3s-22.67,2.44-33.95-2c0,0,.12-25.69,6.16-40.57l.58-13.26Z" transform="translate(-0.02 1)"/><path class="cls-18" d="M313.35,672.43l15.58.7,5,3.84,1.64.69a4.94,4.94,0,0,1,3,4.55v8.32a23.75,23.75,0,0,1-2.32,10.25l-4.77,10s2.21,7.67,2.44,10.58H316.26l-2.91-3.61-2.44,3.61h-6.74s.12-4,2-5.93h-2.38a6.18,6.18,0,0,1-6.08-7.27l5.08-28.31,8.38-4.76Z" transform="translate(-0.02 1)"/><path class="cls-8" d="M317.66,648.9a7.81,7.81,0,0,1,4.85.09c2.72.94,6.75,3.57,7.35,11,.7,12.44,1.05,14.3,1.05,14.3l3,2.68-.46.24a6.67,6.67,0,0,0-3.47,5h0a6.52,6.52,0,0,1-3.49,5,9.71,9.71,0,0,1-5.4,1.12,1.34,1.34,0,0,1-1-2c1.52-2.69,4.37-8.61,3.85-14.54l-6.86,6-5.69,4.3-2.91,8.91a2.92,2.92,0,0,1-3.37,1.95h0A2.92,2.92,0,0,1,303,689l.53-1.14a6.42,6.42,0,0,0,.51-3.74h0a6.38,6.38,0,0,1,3.06-6.56h0a6.22,6.22,0,0,0,3-4.76l1.44-15.1S311.89,650.72,317.66,648.9Z" transform="translate(-0.02 1)"/><path class="cls-17" d="M314.87,659v9.25a4,4,0,0,0,2.2,2.56v8.37l-2.2,1.86v5l4.53-5.23-.93-2.79L325,672.2v-1.74a9.2,9.2,0,0,0,2.33-5.7c0-4.07-1.17-11.28-6.86-11.28h-.29A5.47,5.47,0,0,0,314.87,659Z" transform="translate(-0.02 1)"/><path class="cls-17" d="M322.13,704.55l1.32-4.35a5.8,5.8,0,0,1,1.48-2.44l4.25-4.2a1.3,1.3,0,0,1,2.06.31h0a1.31,1.31,0,0,1-.29,1.59l-2.71,2.37,3.86-.1a1.52,1.52,0,0,1,1.42,2.18l-.42.87a2.75,2.75,0,0,1-2.24,1.55l-3.55.3A4.67,4.67,0,0,1,322.13,704.55Z" transform="translate(-0.02 1)"/><path class="cls-17" d="M308.18,704.69l-5.61-5.88a3.15,3.15,0,0,0-2.28-1h-.5a1.52,1.52,0,0,0-1.51,1.37l-.58,5.53a1.34,1.34,0,0,0,1,1.42l1.83.49s1.48,2.44,5.67,1.83C306.18,708.47,306.44,705.62,308.18,704.69Z" transform="translate(-0.02 1)"/><path class="cls-19" d="M329.34,815.77l-.17.93v8h-1.52v-2.2l-.5.89a5.93,5.93,0,0,1-5.21,3.06h-6.33a1.33,1.33,0,0,1-1.33-1.33,1.35,1.35,0,0,1,.52-1l1.37-1.07a10.2,10.2,0,0,0,1.55-1.53,4.49,4.49,0,0,0,4.7.22A40.69,40.69,0,0,0,329.34,815.77Z" transform="translate(-0.02 1)"/><path class="cls-19" d="M316.49,812.93a3.34,3.34,0,0,1-1.05,2.43l-2.55,2.39v6.16h-1.74V818l-5.85,5.21a3.8,3.8,0,0,1-2.76,1.18h-6.35a1.89,1.89,0,0,1-.61-3.69l1.71-.58a7.17,7.17,0,0,0,1.83-.93,3.59,3.59,0,0,0,4-.13l12.47-8.65.51.9A3.37,3.37,0,0,1,316.49,812.93Z" transform="translate(-0.02 1)"/><line class="cls-21" x1="228.1" y1="509.77" x2="228.1" y2="583.27"/><line class="cls-21" x1="520.6" y1="509.27" x2="520.6" y2="583.27"/><path class="cls-22" d="M562,642.61h0c-.45-.14-.91-.27-1.37-.39l-.4-.09c-.35-.09-.69-.17-1-.24l-.88-.16-.59-.1a30.28,30.28,0,0,0-34.86,29.91c0,.52,0,1,0,1.55,0,.3,0,.6.07.89s0,.43,0,.63q.06.63.15,1.23l0,.27A30.27,30.27,0,1,0,562,642.61Z" transform="translate(-0.02 1)"/><path class="cls-22" d="M186,671.61h0c-.45-.14-.91-.27-1.37-.39l-.4-.09c-.35-.09-.69-.17-1-.24l-.88-.16-.59-.1a30.28,30.28,0,0,0-34.86,29.91c0,.52,0,1,0,1.55,0,.3,0,.6.07.89s0,.43.05.63q.06.63.15,1.23l0,.27A30.27,30.27,0,1,0,186,671.61Z" transform="translate(-0.02 1)"/><ellipse class="cls-14" cx="189.97" cy="836.56" rx="31.84" ry="8.77" transform="translate(-338.28 161.62) rotate(-25.21)"/><path class="cls-23" d="M176.17,825.54V837.4a30.53,30.53,0,0,0,.61,5.59c.8,3.76,2.61,8,6.7,8.09,0,0,3-1.68,1.91-8.32a33.88,33.88,0,0,0-2.71-8.26l1-40.81-9-.7-.81,8S169.78,810.54,176.17,825.54Z" transform="translate(-0.02 1)"/><path class="cls-8" d="M184.19,693.94l1,1.34a4.27,4.27,0,0,1-1.86,2.26l-.52-3.6Z" transform="translate(-0.02 1)"/><path class="cls-8" d="M176.78,843c.8,3.76,2.61,8,6.7,8.09,0,0,3-1.68,1.91-8.32a4.61,4.61,0,0,1-3.29,1.85A7.48,7.48,0,0,1,176.78,843Z" transform="translate(-0.02 1)"/><path class="cls-17" d="M171.52,832.74a3.11,3.11,0,0,0,1.06,2.33l.8.7v9.06h1.74V836.7l7.1,8.83h8.49a1.25,1.25,0,0,0,.69-2.3l-3.25-2.15h0a10.49,10.49,0,0,1-2.24-2l-4.66-5.6,6.58-39.88-8-1.05-4.18,32.06a9.13,9.13,0,0,1-2.15,4.77l-.21.25-1,1.12A3.05,3.05,0,0,0,171.52,832.74Z" transform="translate(-0.02 1)"/><path class="cls-8" d="M171.52,832.74a3.11,3.11,0,0,0,1.06,2.33l.8.7v9.06h1.74V836.7l7.1,8.83h8.49a1.25,1.25,0,0,0,.69-2.3l-3.25-2.15h-.05l-.67.14a4.27,4.27,0,0,1-3.87-1.18L173.24,829.6l-1,1.12A3.05,3.05,0,0,0,171.52,832.74Z" transform="translate(-0.02 1)"/><path class="cls-8" d="M193.84,756.49l-.69,38.59L171.94,797,170,783.59a6.45,6.45,0,0,0-.79-2.28c-1.84-3.16-7.05-13.46-3.86-24l20.69-2.44Z" transform="translate(-0.02 1)"/><path class="cls-16" d="M168.15,711.61l-5.73.91a3.78,3.78,0,0,0-3.12,4.39l3.33,18.43a6.52,6.52,0,0,0,4.88,5.18l.64.16-1.82,7.38a9.4,9.4,0,0,0-.22,1.29l-.75,7.95s23.95,2.32,31.27-.81l-2.79-12.56,4.8-1.13a4.71,4.71,0,0,0,3.21-6.51L193,716.64a4.14,4.14,0,0,0-3.72-2.31h-9.51Z" transform="translate(-0.02 1)"/><path class="cls-17" d="M191,737.38l-1.37-4.33,5.57-5.11a.76.76,0,0,1,1.2.24h0a.77.77,0,0,1-.11.81l-1.38,1.63,4.5-.75a.79.79,0,0,1,.82.43h0a.78.78,0,0,1-.4,1.07l-2.28.94h2.93a.67.67,0,0,1,.66.66h0a.66.66,0,0,1-.62.65l-2.76.17,2.17.8a.69.69,0,0,1,.38.95h0a.7.7,0,0,1-.74.38l-4.19-.76s-.37,1.16-3,1.06Z" transform="translate(-0.02 1)"/><path class="cls-17" d="M178.61,740.56h-7s1.74,2.91,4.65,2.56l2.32,1.28Z" transform="translate(-0.02 1)"/><path class="cls-17" d="M172.15,731.63h-3.79l-.77-1.89a1.28,1.28,0,0,1,1.19-1.76h0a1.28,1.28,0,0,1,1,.51Z" transform="translate(-0.02 1)"/><polygon class="cls-8" points="173.59 709.82 172.2 707 164.18 715.4 171.62 715.4 171.38 717.84 183.07 723.66 173.59 709.82"/><polygon class="cls-8" points="183.07 723.66 185.68 715.33 189.64 715.33 179.75 709.71 180.68 714.59 183.07 723.66"/><path class="cls-17" d="M183.15,701.38s.23,5.58-2.68,6.28v4l1.86,2.09.76,9L172.22,710v-5l-.7-3.6a1.93,1.93,0,0,1-1.65-.63,3.58,3.58,0,0,1-.54-1.79,11.35,11.35,0,0,1,.06-2.33,2.26,2.26,0,0,1,.32-1,1,1,0,0,1,.94-.43l1.74-5.81,10.76,1.1.35,6.22c.43,0,.81.42.95.84a3,3,0,0,1,0,1.3,4.6,4.6,0,0,1-.3,1.38C184,700.62,183.61,701.29,183.15,701.38Z" transform="translate(-0.02 1)"/><path class="cls-8" d="M184.26,695.34a12.51,12.51,0,0,1-8-4.32,9.11,9.11,0,0,1-5.75,4.15l-.78.42-.24-8.41a5.74,5.74,0,0,1,5.74-5.91h0a5.74,5.74,0,0,1,4.37,2l2,2.38a14.81,14.81,0,0,1,3.55,9.62h0Z" transform="translate(-0.02 1)"/><path class="cls-14" d="M594,792.52c2.06,4.38-9.16,14-25.07,21.49s-30.47,10-32.54,5.63,9.17-14,25.07-21.49S592,788.14,594,792.52Z" transform="translate(-0.02 1)"/><path class="cls-8" d="M539.31,812.46,531.87,818a2.3,2.3,0,0,0-.93,1.85h0a2.31,2.31,0,0,0,2.45,2.31l6.13-.35a5,5,0,0,0,2.75-1h0a5,5,0,0,1,3-1h1.27a2.73,2.73,0,0,0,2.73-2.73V812Z" transform="translate(-0.02 1)"/><path class="cls-8" d="M575.23,812.46l7.45,5.58a2.32,2.32,0,0,1,.92,1.85h0a2.3,2.3,0,0,1-2.44,2.31l-6.13-.35a5.05,5.05,0,0,1-2.76-1h0a5,5,0,0,0-3-1H568a2.73,2.73,0,0,1-2.73-2.73V812Z" transform="translate(-0.02 1)"/><path class="cls-15" d="M573.84,746.78V725h-37l1.4,24-1.4,64.35c2.67,2.62,12.85,2.44,13.83,0l2.13-51.68,2.41-8.24,4.53,7.31,3.61,52.61c1.33,1.9,12.78,1.57,13.66-1.45Z" transform="translate(-0.02 1)"/><path class="cls-15" d="M521,724.09a94,94,0,0,0,8.65,9.2v12.43a2.79,2.79,0,0,0,2.57,2.77l6,.49,1.27-18.24c13.49,4.64,31.39.69,31.39.69l2.91,15.35,4.18-.91a3.12,3.12,0,0,0,2.42-3.44l-1.25-9.49c5.12-4.4,9-12,10.85-16.13a6.31,6.31,0,0,0-.19-5.59l-12.57-23.44a6.62,6.62,0,0,0-4.08-3.26l-13-3.56-1.23-.34-3.6.12-6.75-.12-2.08.77L535,685.65a6.67,6.67,0,0,0-3.62,3.23L519.77,712A11.29,11.29,0,0,0,521,724.09ZM574.54,702l4.48,9.4a5.3,5.3,0,0,1,.52,2.25V715a5.2,5.2,0,0,1-1.48,3.64l-2,2.08Zm-46.22,11.12,5.53-9.49-.81,19.3-4.59-6.55A3,3,0,0,1,528.32,713.13Z" transform="translate(-0.02 1)"/><path class="cls-16" d="M539.54,727v3.73c13.49,4.64,31.39.69,31.39.69l-.11-4.42-7.1-11.9a17.12,17.12,0,0,1-2.43-8.09L560.19,681l-1.23-.34-3.6.12-6.75-.12-2.08.77.19,27.43a17.73,17.73,0,0,1-2.05,8.42Z" transform="translate(-0.02 1)"/><path class="cls-8" d="M554,684.46l-2.67,2.21s-.16,1.28,1.78,2l-1.79,8.13-.58,30.93,3.88,3.78s5.31-3,5.19-3.32-1.28-32.43-1.28-32.43l-3.25-6.63a3.29,3.29,0,0,0,2.67-2.09Z" transform="translate(-0.02 1)"/><path class="cls-17" d="M544.66,664.75v4.37c0,5,2.2,4.77,2.2,4.77v2.19a2.2,2.2,0,0,0,.83,1.71,2.48,2.48,0,0,1,.92,1.91v.92l5.35,3.84,5-3.84v-8.56h1a4.28,4.28,0,0,0,.82-5.53h0a2.51,2.51,0,0,1-.19-.24l0-1.28a8,8,0,0,0-8-8.24h-.3a8,8,0,0,0-6.75,4.19h0a8.11,8.11,0,0,0-1,3.8Z" transform="translate(-0.02 1)"/><path class="cls-8" d="M544.84,663.06a2.27,2.27,0,0,1,.78,0h0c1.23.22,2.22,1.21,3.45,1.36,2.47.3,4.4-2.9,6.85-2.44a3.33,3.33,0,0,1,2.39,2.56,6.19,6.19,0,0,1,.17,2.06.79.79,0,0,0,1.24.67l1.06-.73h0a2.51,2.51,0,0,1-.19-.24l0-1.28a8,8,0,0,0-8-8.24h-.3a8,8,0,0,0-6.75,4.19h0A7.73,7.73,0,0,0,544.84,663.06Z" transform="translate(-0.02 1)"/><path class="cls-8" d="M544.66,664.75v3.08a1,1,0,0,0,1-1V661h0a8.11,8.11,0,0,0-1,3.8Z" transform="translate(-0.02 1)"/><path class="cls-17" d="M576.16,732.47s-.69-6.27-5.34-7.44l-5.71,2.86a6.19,6.19,0,0,0-2.67,2.57l-1.1,2a1.48,1.48,0,0,0,.21,1.74h0a1.52,1.52,0,0,0,1.59.4l2.45-.85-2.1,1.63c-.78.52-.17,1.79.58,1.28l3.14-.93c-1.1.83-.67,2.7.58,2.09l3.41-1.8a7.69,7.69,0,0,0,1-.66Z" transform="translate(-0.02 1)"/><path class="cls-17" d="M533.5,734.45s.69-6.28,5.35-7.44l5.7,2.85a6.19,6.19,0,0,1,2.67,2.57l1.11,2a1.5,1.5,0,0,1-.22,1.74h0a1.5,1.5,0,0,1-1.59.4l-2.44-.84,2.09,1.62c.78.53.17,1.79-.58,1.28l-3.14-.93c1.1.83.67,2.7-.58,2.09l-3.4-1.8a7.79,7.79,0,0,1-1.06-.66Z" transform="translate(-0.02 1)"/><path class="cls-24" d="M185.36,673.53h0l-1.27-.37-.37-.08-1-.23-.81-.14-.55-.1a27.18,27.18,0,0,0-4.25-.33,27.76,27.76,0,0,0-22.06,11,28.68,28.68,0,0,0-5.94,17.54c0,.49,0,1,0,1.46,0,.28,0,.56.06.83s0,.4,0,.6c0,.39.09.77.15,1.16a2.13,2.13,0,0,0,0,.25,28,28,0,0,0,55.68-4.3A28.45,28.45,0,0,0,185.36,673.53Z" transform="translate(-0.02 1)"/><path class="cls-24" d="M561.36,644.53h0l-1.27-.37-.37-.08-1-.23-.81-.14-.55-.1a27.18,27.18,0,0,0-4.25-.33,27.76,27.76,0,0,0-22.06,11,28.68,28.68,0,0,0-5.94,17.54c0,.49,0,1,0,1.46,0,.28,0,.56.06.83s0,.4,0,.6c0,.39.09.77.15,1.16a2.13,2.13,0,0,0,0,.25,28,28,0,0,0,55.68-4.3A28.45,28.45,0,0,0,561.36,644.53Z" transform="translate(-0.02 1)"/><text class="cls-25" transform="translate(250.86 195.71)"><tspan class="cls-26">P</tspan><tspan class="cls-27" x="16.51" y="0">r</tspan><tspan x="26.82" y="0">ank </tspan><tspan class="cls-28" x="81.79" y="0">y</tspan><tspan x="96.54" y="0">our f</tspan><tspan class="cls-29" x="158.33" y="0">r</tspan><tspan x="168.93" y="0">iends!</tspan><tspan x="-91.69" y="38.4">Upload up </tspan><tspan class="cls-30" x="55.21" y="38.4">t</tspan><tspan x="65.61" y="38.4">o 2 headshot photos.</tspan></text><text class="cls-25" transform="translate(56.08 922.77)"><tspan class="cls-31">T</tspan><tspan x="15.68" y="0">he app will gene</tspan><tspan class="cls-27" x="235.52" y="0">r</tspan><tspan class="cls-32" x="245.82" y="0">a</tspan><tspan class="cls-30" x="261.12" y="0">t</tspan><tspan x="271.52" y="0">e a pho</tspan><tspan class="cls-30" x="370.07" y="0">t</tspan><tspan x="380.47" y="0">o with </tspan><tspan class="cls-28" x="471" y="0">y</tspan><tspan x="485.75" y="0">our fa</tspan><tspan class="cls-30" x="562.97" y="0">c</tspan><tspan x="577.11" y="0">es in </tspan><tspan x="-11.57" y="38.4">the c</tspan><tspan class="cls-28" x="53.93" y="38.4">r</tspan><tspan class="cls-31" x="64.08" y="38.4">o</tspan><tspan class="cls-28" x="81.42" y="38.4">wd</tspan><tspan x="122.38" y="38.4">. Sha</tspan><tspan class="cls-28" x="184.75" y="38.4">r</tspan><tspan x="194.89" y="38.4">e the pi</tspan><tspan class="cls-33" x="294.57" y="38.4">c</tspan><tspan x="309.32" y="38.4">tu</tspan><tspan class="cls-28" x="337.55" y="38.4">r</tspan><tspan x="347.69" y="38.4">e on </tspan><tspan class="cls-34" x="412.62" y="38.4">F</tspan><tspan class="cls-3" x="426.76" y="38.4">a</tspan><tspan class="cls-35" x="442.19" y="38.4">c</tspan><tspan class="cls-3" x="456.33" y="38.4">ebook </tspan><tspan x="547.5" y="38.4">and tag </tspan><tspan class="cls-28" x="239.36" y="76.8">y</tspan><tspan x="254.11" y="76.8">our f</tspan><tspan class="cls-29" x="315.9" y="76.8">r</tspan><tspan x="326.49" y="76.8">iends</tspan></text></svg>